<svg xmlns="http://www.w3.org/2000/svg" width="248.035" height="95.394" viewBox="0 0 248.035 95.394">
  <g id="Group_202" data-name="Group 202" transform="translate(0 0.474)">
    <path id="Path_244" data-name="Path 244" d="M13.628,0H234.4a13.628,13.628,0,0,1,13.628,13.628V95.394H0V13.628A13.628,13.628,0,0,1,13.628,0Z" transform="translate(0 -0.474)" fill="#0a0a7d"/>
    <ellipse id="Ellipse_20" data-name="Ellipse 20" cx="36.5" cy="37" rx="36.5" ry="37" transform="translate(153.027 12.92)" fill="rgba(255,149,190,0.75)"/>
    <path id="Path_243" data-name="Path 243" d="M13.628,0S14.1.437,15.4,1.434C19.88,4.889,36.419,15.853,66.952,17.952A163.523,163.523,0,0,0,101.1,16.46c60.356-8.626,67.864,48.083,108.237,46.417S248.025,6.1,248.025,13.628V95.394H0V13.628A13.628,13.628,0,0,1,13.628,0Z" transform="translate(0 -0.474)" fill="rgba(31,234,187,0.47)"/>
  </g>
</svg>
