<svg xmlns="http://www.w3.org/2000/svg" width="1920.375" height="69.105" viewBox="0 0 1920.375 69.105">
  <g id="Group_229" data-name="Group 229" transform="translate(0.375 -160)">
    <path id="Path_21" data-name="Path 21" d="M1055.547.129h13.745L1920,0V69l-905.906.082s-160.106.053-105.427,0S1055.547.129,1055.547.129Z" transform="translate(0 160)" fill="#1feabb" fill-opacity="0.42"/>
    <path id="Path_245" data-name="Path 245" d="M1056.408.027s-55.247,73.113,96.654,35.207,147.036,85.646,330.438,0S1764.5,72.979,1838,65s82-65,82-65V69H0L-.375.1Z" transform="translate(0 160)" fill="#0a0a7d"/>
    <path id="Path_246" data-name="Path 246" d="M158.568,31.188c110.852,42.543,275.4,31.16,318,0S746.771,0,746.771,0V69H0S47.716-11.355,158.568,31.188Z" transform="translate(1173.229 160)" fill="#ff95be" fill-opacity="0.7"/>
  </g>
</svg>
