<svg xmlns="http://www.w3.org/2000/svg" width="1349" height="221.651" viewBox="0 0 1349 221.651">
  <g id="Path_247" data-name="Path 247" fill="none">
    <path d="M0,0H1209.5C1286.544,0,1349,49.618,1349,110.826s-62.456,110.826-139.5,110.826H0Z"/>
    <path d="M 5 4.999923706054688 L 5 216.6511993408203 L 1209.5 216.6511993408203 C 1218.696899414062 216.6511993408203 1227.885986328125 215.9153747558594 1236.811767578125 214.4644775390625 C 1245.500854492188 213.0517425537109 1254.045043945312 210.9450225830078 1262.20703125 208.2024688720703 C 1270.207397460938 205.5140991210938 1277.92041015625 202.1886596679688 1285.131225585938 198.3182830810547 C 1292.255981445312 194.4942932128906 1298.951293945312 190.1062927246094 1305.031127929688 185.2761077880859 C 1311.089965820312 180.462646484375 1316.586181640625 175.1717376708984 1321.366577148438 169.5501098632812 C 1326.17236328125 163.8988342285156 1330.29638671875 157.8642883300781 1333.6240234375 151.6141052246094 C 1336.999145507812 145.274658203125 1339.589599609375 138.6464691162109 1341.323852539062 131.9135589599609 C 1343.099609375 125.0195617675781 1344 117.9244689941406 1344 110.8255615234375 C 1344 103.7266540527344 1343.099609375 96.63156127929688 1341.323852539062 89.73756408691406 C 1339.589599609375 83.00465393066406 1336.999145507812 76.37646484375 1333.6240234375 70.03701782226562 C 1330.29638671875 63.78683471679688 1326.17236328125 57.75228881835938 1321.366577148438 52.10101318359375 C 1316.586181640625 46.47938537597656 1311.089965820312 41.1884765625 1305.031127929688 36.37501525878906 C 1298.951293945312 31.54483032226562 1292.255981445312 27.15682983398438 1285.131225585938 23.33283996582031 C 1277.92041015625 19.46246337890625 1270.207397460938 16.13700866699219 1262.20703125 13.44865417480469 C 1254.045043945312 10.70610046386719 1245.500854492188 8.599380493164062 1236.811767578125 7.1866455078125 C 1227.885986328125 5.735748291015625 1218.696899414062 4.999923706054688 1209.5 4.999923706054688 L 5 4.999923706054688 M 0 -7.62939453125e-05 L 1209.5 -7.62939453125e-05 C 1286.543579101562 -7.62939453125e-05 1349 49.6182861328125 1349 110.8255615234375 C 1349 172.0328369140625 1286.543579101562 221.6511993408203 1209.5 221.6511993408203 L 0 221.6511993408203 L 0 -7.62939453125e-05 Z" stroke="none" fill="#0a0a7d"/>
  </g>
</svg>
