<svg xmlns="http://www.w3.org/2000/svg" width="48" height="48" viewBox="0 0 48 48">
  <g id="Icon_Wallet" data-name="Icon Wallet" transform="translate(-282 -1091)">
    <g id="Rectangle_200" data-name="Rectangle 200" transform="translate(282 1091)" fill="#fff" stroke="#0b487d" stroke-width="1">
      <rect width="48" height="48" rx="2" stroke="none"/>
      <rect x="0.5" y="0.5" width="47" height="47" rx="1.5" fill="none"/>
    </g>
    <path id="Icon_awesome-alipay" data-name="Icon awesome-alipay" d="M26.56,2.25H4.94A4.936,4.936,0,0,0,0,7.19V28.81a4.936,4.936,0,0,0,4.94,4.94H26.56a4.949,4.949,0,0,0,4.94-4.894c-3.232-1.8-7.776-4.243-12.066-6.218a13.109,13.109,0,0,1-10.45,5.7c-4.963,0-6.59-3.185-6.823-5.37-.279-2.743,1.046-5.73,7-5.73A32.574,32.574,0,0,1,18.1,18.988a28.271,28.271,0,0,0,1.86-4.243H7.428V13.571H13.9v-2.2h-7.7V10.038H13.9V6.493h3.58v3.545h7.695v1.337h-7.7v2.2h6.242a47.708,47.708,0,0,1-2.7,6.393c3.44,1.174,7.032,2.534,10.45,3.708V7.19A4.923,4.923,0,0,0,26.56,2.25ZM3.324,22.707c.07,1.418.721,3.778,4.917,3.778,3.661,0,6.51-2.79,8.288-5.126-3.138-1.313-5.94-2.209-7.695-2.209-4.743,0-5.579,2.325-5.51,3.556Z" transform="translate(290.25 1097)" fill="#0b487d"/>
  </g>
</svg>
