<svg xmlns="http://www.w3.org/2000/svg" xmlns:xlink="http://www.w3.org/1999/xlink" width="59.026" height="59.031"
     viewBox="0 0 59.026 59.031">
    <defs>
        <linearGradient id="linear-gradient" x1="-0.111" y1="0.505" x2="0.831" y2="0.505"
                        gradientUnits="objectBoundingBox">
            <stop offset="0" stop-color="#e6c06c"/>
            <stop offset="1" stop-color="#e6c06c"/>
        </linearGradient>
        <linearGradient id="linear-gradient-2" x1="0" y1="0.5" x2="1" y2="0.5" xlink:href="#linear-gradient"/>
    </defs>
    <g id="Group_39" data-name="Group 39" transform="translate(0)">
        <g id="Group_34" data-name="Group 34" transform="translate(1.727 1.729)">
            <path id="Path_71" data-name="Path 71"
                  d="M311.085,137.138H287.636a16.08,16.08,0,0,1-16.062-16.062V97.628a16.08,16.08,0,0,1,16.062-16.062h23.449a16.08,16.08,0,0,1,16.061,16.062v23.449A16.08,16.08,0,0,1,311.085,137.138ZM287.636,82.6a15.044,15.044,0,0,0-15.027,15.027v23.449A15.044,15.044,0,0,0,287.636,136.1h23.449a15.043,15.043,0,0,0,15.026-15.027V97.628A15.043,15.043,0,0,0,311.085,82.6Z"
                  transform="translate(-271.574 -81.566)" fill="#fbb03b"/>
        </g>
        <g id="Group_35" data-name="Group 35" transform="translate(0 0)" opacity="0.55">
            <path id="Path_72" data-name="Path 72"
                  d="M307.481,137.255a16.309,16.309,0,0,1-2.6-.211l-23.146-3.753a16.081,16.081,0,0,1-13.284-18.425L272.2,91.719a16.061,16.061,0,0,1,18.425-13.283l23.147,3.753a16.08,16.08,0,0,1,13.283,18.425L323.3,123.761a16.07,16.07,0,0,1-15.821,13.495Zm-2.439-1.233a15.026,15.026,0,0,0,17.238-12.427l3.753-23.146A15.044,15.044,0,0,0,313.606,83.21l-23.147-3.753a15.026,15.026,0,0,0-17.238,12.428l-3.753,23.146A15.043,15.043,0,0,0,281.9,132.269Z"
                  transform="translate(-268.237 -78.225)" fill="url(#linear-gradient)"/>
        </g>
        <g id="Group_38" data-name="Group 38" transform="translate(13.903 17.148)">
            <g id="Group_36" data-name="Group 36" transform="translate(10.954)">
                <path id="Path_73" data-name="Path 73"
                      d="M335.7,111.357v3.014l-14.516,18.5h15.347v3.222H316.265v-2.979l14.55-18.535H317.3v-3.222Z"
                      transform="translate(-316.265 -111.357)" fill="#fbb03b"/>
            </g>
            <g id="Group_37" data-name="Group 37" transform="translate(0)">
                <path id="Path_74" data-name="Path 74"
                      d="M308.923,111.357l9.527,24.735H314.4l-2.321-6.374H301.439l-2.321,6.374H295.1l9.527-24.735Zm2.009,15.243-4.088-11.19h-.139l-4.123,11.19Z"
                      transform="translate(-295.1 -111.357)" fill="url(#linear-gradient-2)"/>
            </g>
        </g>
    </g>
</svg>
