<svg xmlns="http://www.w3.org/2000/svg" width="39.207" height="47.994" viewBox="0 0 39.207 47.994">
    <g id="Group_152" data-name="Group 152" transform="translate(0 0)">
        <path id="Path_183" data-name="Path 183"
              d="M167.057,884.534c-.228.2-.454.4-.676.6a17.347,17.347,0,0,0-2.353,2.484,9.669,9.669,0,0,0-1.962,5.032,10.893,10.893,0,0,0,3.719,9.368,6.7,6.7,0,0,0,2.538,1.454l.084.028c-.1.3-.189.588-.3.875a29.07,29.07,0,0,1-4.7,8.251,11.3,11.3,0,0,1-2.723,2.493,5.437,5.437,0,0,1-3.179.938,9.378,9.378,0,0,1-2.391-.461c-.856-.267-1.7-.569-2.559-.833a10.713,10.713,0,0,0-2.794-.506,8.532,8.532,0,0,0-3.057.5c-.756.258-1.5.564-2.247.833a9.1,9.1,0,0,1-2.218.526,5.341,5.341,0,0,1-2.906-.581,9.863,9.863,0,0,1-2.882-2.274,24.258,24.258,0,0,1-3.089-4.387,33.561,33.561,0,0,1-3.009-6.794,26.092,26.092,0,0,1-.964-4.421,23.756,23.756,0,0,1-.113-4.9,17.391,17.391,0,0,1,1.259-5.429,12.937,12.937,0,0,1,3.7-5.073,9.192,9.192,0,0,1,4.546-2.019,12.057,12.057,0,0,1,3.732.074,36.969,36.969,0,0,1,3.879.952,16.978,16.978,0,0,0,2.465.533,5.06,5.06,0,0,0,1.643-.139,27.543,27.543,0,0,0,3.052-.895,15.706,15.706,0,0,1,3.409-.792,10.306,10.306,0,0,1,8.1,2.48,16.468,16.468,0,0,1,1.925,2C167.012,884.476,167.031,884.5,167.057,884.534Z"
              transform="translate(-129.2 -868.145)" fill="#fff"/>
        <path id="Path_184" data-name="Path 184"
              d="M214.469,840.952c.024-.408.036-.8.071-1.182a12.726,12.726,0,0,1,.838-3.636,10.2,10.2,0,0,1,2.311-3.6,10.577,10.577,0,0,1,3.523-2.2,16.449,16.449,0,0,1,2.409-.744l.073-.014a3.253,3.253,0,0,1,.167,1.038,9.761,9.761,0,0,1-.592,3.354,11.38,11.38,0,0,1-4.5,5.841,6.127,6.127,0,0,1-2.751.973c-.455.056-.911.108-1.366.161C214.6,840.947,214.549,840.947,214.469,840.952Z"
              transform="translate(-194.545 -829.574)" fill="#fff"/>
    </g>
</svg>
