<svg id="Group_288" data-name="Group 288" xmlns="http://www.w3.org/2000/svg" width="150" height="90" viewBox="0 0 150 90">
  <g id="Rectangle_247" data-name="Rectangle 247" fill="#fff" stroke="#0a0a7d" stroke-width="2">
    <rect width="150" height="90" rx="10" stroke="none"/>
    <rect x="1" y="1" width="148" height="88" rx="9" fill="none"/>
  </g>
  <path id="visa" d="M46.52,22.995a13.31,13.31,0,0,0-4.64-.8c-5.12,0-8.733,2.581-8.76,6.28-.032,2.72,2.571,4.251,4.536,5.163,2.019.933,2.693,1.52,2.688,2.36-.013,1.272-1.613,1.848-3.1,1.848a10.962,10.962,0,0,1-4.883-1l-.637-.3L31,40.808a17.329,17.329,0,0,0,5.8,1c5.443,0,9-2.563,9.043-6.5.043-2.168-1.36-3.813-4.323-5.168-1.8-.88-2.917-1.469-2.917-2.363,0-.789.957-1.632,2.957-1.632a9.494,9.494,0,0,1,3.88.728l.48.216.723-4.117-.125.027Zm13.288-.453h-4a2.588,2.588,0,0,0-2.723,1.576L45.392,41.541h5.443l1.088-2.853,6.64.005c.163.667.64,2.848.64,2.848H64l-4.192-19Zm-34.048-.16h5.181L27.7,41.392H22.517L25.76,22.376ZM12.589,32.859l.539,2.64L18.2,22.541h5.491L15.525,41.515H10.048L5.568,25.445a1.061,1.061,0,0,0-.48-.632A21.9,21.9,0,0,0,0,22.928l.067-.4H8.416a2.17,2.17,0,0,1,2.355,1.611l1.819,8.728ZM53.411,34.8l2.067-5.317c-.027.053.427-1.1.688-1.813l.355,1.64,1.2,5.485H53.411Z" transform="translate(38.4 13)" fill="#0a0a7d"/>
</svg>
