<svg xmlns="http://www.w3.org/2000/svg" width="32" height="32" viewBox="0 0 32 32">
    <defs>
        <clipPath id="clip-path">
            <rect id="Rectangle_77" data-name="Rectangle 77" width="32" height="32" transform="translate(983 1648)"
                  fill="#fff" stroke="#707070" stroke-width="1"/>
        </clipPath>
    </defs>
    <g id="Mask_Group_14" data-name="Mask Group 14" transform="translate(-983 -1648)" clip-path="url(#clip-path)">
        <g id="heart-outline" transform="translate(999 1664)">
            <g id="heart-outline-2" data-name="heart-outline" transform="translate(-16 -16)">
                <g id="heart">
                    <rect id="Rectangle_76" data-name="Rectangle 76" width="32" height="32" fill="#0b487d" opacity="0"/>
                    <path id="Union_1" data-name="Union 1"
                          d="M-2416.665-10301.334a1.332,1.332,0,0,1-.946-.386l-10.362-10.373a7.018,7.018,0,0,1,0-9.867,6.984,6.984,0,0,1,9.867,0l1.441,1.438,1.441-1.438a6.984,6.984,0,0,1,9.867,0,7.018,7.018,0,0,1,0,9.867l-10.362,10.373a1.332,1.332,0,0,1-.936.386Z"
                          transform="translate(2432.665 10329.334)" fill="#0b487d"/>
                </g>
            </g>
        </g>
    </g>
</svg>
