<svg id="Group_206" data-name="Group 206" xmlns="http://www.w3.org/2000/svg" width="150" height="150" viewBox="0 0 150 150">
  <g id="Group_2" data-name="Group 2">
    <g id="Group_1" data-name="Group 1">
      <path id="Path_1" data-name="Path 1" d="M131.126,204.952a75,75,0,1,1,75-75A75.085,75.085,0,0,1,131.126,204.952Zm0-147.4a72.4,72.4,0,1,0,72.4,72.4A72.484,72.484,0,0,0,131.126,57.551Z" transform="translate(-56.125 -54.952)" fill="#0b487d"/>
    </g>
  </g>
  <g id="Group_3" data-name="Group 3" transform="translate(56.159 95.75)">
    <path id="Path_2" data-name="Path 2" d="M132.253,129.651H102.378a2.333,2.333,0,0,0-2.412,2.314l.167,9.775a2.344,2.344,0,0,0,.593,1.517L106.847,150a2.662,2.662,0,0,1,.837,1.571V152.6c0,1.329.59,2.408,1.921,2.408h15.42a2.21,2.21,0,0,0,2.161-2.408v-1.027a2.537,2.537,0,0,1,.718-1.585l6.254-6.828a2.688,2.688,0,0,0,.828-1.593v-9.689C134.987,130.541,133.582,129.651,132.253,129.651Z" transform="translate(-99.966 -129.651)" fill="#0b487d"/>
  </g>
  <g id="Group_8" data-name="Group 8" transform="translate(45.226 28.185)">
    <g id="Group_4" data-name="Group 4" transform="translate(3.252)">
      <path id="Path_3" data-name="Path 3" d="M96.662,103.319h0a2.731,2.731,0,0,1-2.642-2.863v-4.44a2.655,2.655,0,0,1,1.558-2.651l39.7-16.129a2.869,2.869,0,0,1,3.948,2.639l.045,4.445a2.817,2.817,0,0,1-1.729,2.664L97.71,103.108A2.788,2.788,0,0,1,96.662,103.319ZM136.35,77.924a1.974,1.974,0,0,0-.738.145L95.915,94.2a1.8,1.8,0,0,0-.995,1.818v4.44a1.822,1.822,0,0,0,1.741,1.962h0a1.874,1.874,0,0,0,.712-.145L137.2,86.15a1.9,1.9,0,0,0,1.168-1.824l-.048-4.444A1.972,1.972,0,0,0,136.35,77.924Z" transform="translate(-94.02 -77.025)" fill="#0b487d"/>
    </g>
    <g id="Group_5" data-name="Group 5" transform="translate(4.55 27.941)">
      <path id="Path_4" data-name="Path 4" d="M109.6,137.2H106.23a2.9,2.9,0,0,1-2.753-3.02V132.47a1.929,1.929,0,0,0-.819-1.615L96.5,126.6a2.651,2.651,0,0,1-1.474-2.576V119.58a2.715,2.715,0,0,1,1.628-2.654l44.8-18.066a2.846,2.846,0,0,1,3.914,2.642l.01,4.452a2.886,2.886,0,0,1-1.813,2.667l-35.649,14.3,3.345,2.763a2.7,2.7,0,0,1,.911,2.218v6.277A2.78,2.78,0,0,1,109.6,137.2Zm32.921-37.645a1.963,1.963,0,0,0-.73.142l-44.8,18.066a1.823,1.823,0,0,0-1.064,1.819v4.444a1.809,1.809,0,0,0,1.012,1.793l6.23,4.3a2.847,2.847,0,0,1,1.209,2.355v1.708a2.035,2.035,0,0,0,1.854,2.12H109.6c1.085,0,1.673-1.093,1.673-2.12V127.9a1.833,1.833,0,0,0-.581-1.522l-4.516-3.731,37.057-14.862a1.983,1.983,0,0,0,1.248-1.828l-.01-4.453A1.957,1.957,0,0,0,142.524,99.553Z" transform="translate(-95.025 -98.653)" fill="#0b487d"/>
    </g>
    <g id="Group_6" data-name="Group 6" transform="translate(0 12.052)">
      <path id="Path_5" data-name="Path 5" d="M94.31,117.453h0a2.838,2.838,0,0,1-2.806-2.864v-4.434A2.822,2.822,0,0,1,93.23,107.5l51.5-20.937a2.852,2.852,0,0,1,3.934,2.635l.035,4.443a2.849,2.849,0,0,1-1.769,2.666L95.381,117.241A2.826,2.826,0,0,1,94.31,117.453Zm51.494-30.2a1.934,1.934,0,0,0-.739.147l-51.5,20.937a1.9,1.9,0,0,0-1.167,1.816v4.434a1.939,1.939,0,0,0,1.907,1.964h0a1.95,1.95,0,0,0,.734-.146l51.543-20.927a1.955,1.955,0,0,0,1.209-1.828l-.036-4.443A1.96,1.96,0,0,0,145.8,87.254Z" transform="translate(-91.503 -86.354)" fill="#0b487d"/>
    </g>
    <g id="Group_7" data-name="Group 7" transform="translate(35.752 47.65)">
      <path id="Path_6" data-name="Path 6" d="M124.721,132.745h-2.9a2.836,2.836,0,0,1-2.648-3.02V120.93a2.756,2.756,0,0,1,1.725-2.666l10.645-4.16a2.872,2.872,0,0,1,3.912,2.654l.039,4.413a2.833,2.833,0,0,1-1.889,2.713l-4.559,1.6a1.834,1.834,0,0,0-1.172,1.855v2.381A3.257,3.257,0,0,1,124.721,132.745Zm7.865-17.937a1.973,1.973,0,0,0-.713.134L121.227,119.1a1.875,1.875,0,0,0-1.15,1.827v8.794a1.952,1.952,0,0,0,1.748,2.12h2.9a2.377,2.377,0,0,0,2.258-2.12v-2.381a2.728,2.728,0,0,1,1.774-2.705l4.559-1.6a1.932,1.932,0,0,0,1.284-1.859l-.036-4.413A1.973,1.973,0,0,0,132.586,114.808Z" transform="translate(-119.177 -113.909)" fill="#0b487d"/>
    </g>
  </g>
</svg>
