<svg xmlns="http://www.w3.org/2000/svg" width="32" height="32" viewBox="0 0 32 32">
    <defs>
        <clipPath id="clip-path">
            <rect id="Rectangle_77" data-name="Rectangle 77" width="32" height="32" transform="translate(983 1648)"
                  fill="#fff" stroke="#707070" stroke-width="1"/>
        </clipPath>
    </defs>
    <g id="Mask_Group_14" data-name="Mask Group 14" transform="translate(-983 -1648)" clip-path="url(#clip-path)">
        <g id="heart-outline" transform="translate(999 1664)">
            <g id="heart-outline-2" data-name="heart-outline" transform="translate(-16 -16)">
                <g id="heart">
                    <rect id="Rectangle_76" data-name="Rectangle 76" width="32" height="32" fill="#0A0A7D" opacity="0"/>
                    <path id="Path_92" data-name="Path 92"
                          d="M15.334,26.667a1.333,1.333,0,0,1-.947-.387L4.027,15.907A6.977,6.977,0,1,1,13.894,6.04l1.44,1.44,1.44-1.44a6.977,6.977,0,1,1,9.867,9.867L16.28,26.28a1.333,1.333,0,0,1-.947.387Zm-6.373-20A4.267,4.267,0,0,0,5.92,7.92a4.32,4.32,0,0,0,0,6.093l9.413,9.427,9.413-9.427a4.32,4.32,0,0,0,0-6.093,4.427,4.427,0,0,0-6.08,0l-2.387,2.4a1.333,1.333,0,0,1-1.893,0L12,7.92A4.267,4.267,0,0,0,8.96,6.667Z"
                          transform="translate(0.666 1.333)" fill="#0A0A7D"/>
                </g>
            </g>
        </g>
    </g>
</svg>
