<svg xmlns="http://www.w3.org/2000/svg" xmlns:xlink="http://www.w3.org/1999/xlink" width="23" height="23" viewBox="0 0 23 23">
  <defs>
    <clipPath id="clip-path">
      <rect id="Rectangle_121" data-name="Rectangle 121" width="23" height="23" transform="translate(1153 597)" fill="#fff" stroke="#707070" stroke-width="1"/>
    </clipPath>
  </defs>
  <g id="Mask_Group_22" data-name="Mask Group 22" transform="translate(-1153 -597)" clip-path="url(#clip-path)">
    <g id="lock-outline" transform="translate(1164.5 608.5)">
      <g id="lock-outline-2" data-name="lock-outline" transform="translate(-11.5 -11.5)">
        <g id="lock">
          <rect id="Rectangle_122" data-name="Rectangle 122" width="23" height="23" fill="#0b487d" opacity="0"/>
          <path id="Path_134" data-name="Path 134" d="M16.458,7.755H15.5V5.943a3.833,3.833,0,1,0-7.667,0V7.755H6.875A2.875,2.875,0,0,0,4,10.63V18.3a2.875,2.875,0,0,0,2.875,2.875h9.583A2.875,2.875,0,0,0,19.333,18.3V10.63A2.875,2.875,0,0,0,16.458,7.755ZM9.75,5.943a1.919,1.919,0,1,1,3.833,0V7.755H9.75ZM17.417,18.3a.958.958,0,0,1-.958.958H6.875a.958.958,0,0,1-.958-.958V10.63a.958.958,0,0,1,.958-.958h9.583a.958.958,0,0,1,.958.958Z" transform="translate(-0.167 -0.088)" fill="#0b487d"/>
          <path id="Path_135" data-name="Path 135" d="M11.875,12a2.875,2.875,0,1,0,2.875,2.875A2.875,2.875,0,0,0,11.875,12Zm0,3.833a.958.958,0,1,1,.958-.958A.958.958,0,0,1,11.875,15.833Z" transform="translate(-0.375 -0.5)" fill="#0b487d"/>
        </g>
      </g>
    </g>
  </g>
</svg>
