<svg xmlns="http://www.w3.org/2000/svg" width="48" height="48" viewBox="0 0 48 48">
    <defs>
        <clipPath id="clip-path">
            <rect id="Rectangle_178" data-name="Rectangle 178" width="48" height="48" transform="translate(390 765)"
                  fill="#fff" stroke="#707070" stroke-width="1"/>
        </clipPath>
    </defs>
    <g id="Mask_Group_36" data-name="Mask Group 36" transform="translate(-390 -765)" clip-path="url(#clip-path)">
        <g id="message-square-outline" transform="translate(414 789)">
            <g id="message-square-outline-2" data-name="message-square-outline" transform="translate(-24 -24)">
                <g id="message-square">
                    <rect id="Rectangle_183" data-name="Rectangle 183" width="48" height="48" fill="#0b487d"
                          opacity="0"/>
                    <circle id="Ellipse_16" data-name="Ellipse 16" cx="2" cy="2" r="2" transform="translate(22 20)"
                            fill="#0b487d"/>
                    <circle id="Ellipse_17" data-name="Ellipse 17" cx="2" cy="2" r="2" transform="translate(30 20)"
                            fill="#0b487d"/>
                    <circle id="Ellipse_18" data-name="Ellipse 18" cx="2" cy="2" r="2" transform="translate(14 20)"
                            fill="#0b487d"/>
                    <path id="Path_189" data-name="Path 189"
                          d="M36,3H8A6,6,0,0,0,2,9V39a2,2,0,0,0,3.02,1.72L14,35.28A2,2,0,0,1,15.1,35H36a6,6,0,0,0,6-6V9A6,6,0,0,0,36,3Zm2,26a2,2,0,0,1-2,2H15.1a6,6,0,0,0-3.1.86l-6,3.6V9A2,2,0,0,1,8,7H36a2,2,0,0,1,2,2Z"
                          transform="translate(2 3)" fill="#0b487d"/>
                </g>
            </g>
        </g>
    </g>
</svg>
