<svg xmlns="http://www.w3.org/2000/svg" width="36" height="36" viewBox="0 0 36 36">
    <defs>
        <clipPath id="clip-path">
            <rect id="Rectangle_148" data-name="Rectangle 148" width="36" height="36" transform="translate(1277 1586)"
                  fill="#fff" stroke="#707070" stroke-width="1"/>
        </clipPath>
    </defs>
    <g id="Mask_Group_28" data-name="Mask Group 28" transform="translate(-1277 -1586)" clip-path="url(#clip-path)">
        <g id="share-outline" transform="translate(1277 1586)">
            <g id="share-outline-2" data-name="share-outline">
                <g id="share">
                    <rect id="Rectangle_149" data-name="Rectangle 149" width="36" height="36" fill="#0A0A7D"
                          opacity="0"/>
                    <path id="Path_158" data-name="Path 158"
                          d="M26.327,21.246a4.561,4.561,0,0,0-3.193,1.307L11.123,17.2V16.183l12.011-5.367a4.561,4.561,0,1,0-1.368-3.254v.517L9.755,13.431a4.561,4.561,0,1,0,0,6.507L21.766,25.3v.5a4.561,4.561,0,1,0,4.561-4.561Zm0-15.2a1.52,1.52,0,1,1-1.52,1.52A1.52,1.52,0,0,1,26.327,6.042ZM6.562,18.2a1.52,1.52,0,1,1,1.52-1.52A1.52,1.52,0,0,1,6.562,18.2Zm19.764,9.122a1.52,1.52,0,1,1,1.52-1.52A1.52,1.52,0,0,1,26.327,27.327Z"
                          transform="translate(1.039 1.56)" fill="#0A0A7D"/>
                </g>
            </g>
        </g>
    </g>
</svg>
