<svg xmlns="http://www.w3.org/2000/svg" width="26" height="26" viewBox="0 0 26 26">
    <defs>
        <clipPath id="clip-path">
            <rect id="Rectangle_14" data-name="Rectangle 14" width="26" height="26" transform="translate(1600 128)"
                  fill="#fff" stroke="#707070" stroke-width="1"/>
        </clipPath>
    </defs>
    <g id="Mask_Group_4" data-name="Mask Group 4" transform="translate(-1600 -128)" clip-path="url(#clip-path)">
        <g id="search" transform="translate(1613 141)">
            <g id="search-2" data-name="search" transform="translate(-13 -13)">
                <g id="search-3" data-name="search">
                    <rect id="Rectangle_15" data-name="Rectangle 15" width="26" height="26" fill="#0b487d" opacity="0"/>
                    <path id="Path_22" data-name="Path 22"
                          d="M22.186,20.648,18.5,16.975a8.58,8.58,0,0,0,1.831-5.308,8.667,8.667,0,1,0-8.667,8.667A8.58,8.58,0,0,0,16.975,18.5l3.673,3.683a1.088,1.088,0,1,0,1.538-1.538ZM5.167,11.667a6.5,6.5,0,1,1,6.5,6.5,6.5,6.5,0,0,1-6.5-6.5Z"
                          transform="translate(0.25 0.25)" fill="#0b487d"/>
                </g>
            </g>
        </g>
    </g>
</svg>
