<svg xmlns="http://www.w3.org/2000/svg" width="48" height="48" viewBox="0 0 48 48">
  <g id="Icon_Net_Banking" data-name="Icon Net Banking" transform="translate(-282 -999)">
    <g id="Rectangle_199" data-name="Rectangle 199" transform="translate(282 999)" fill="#fff" stroke="#0b487d" stroke-width="1">
      <rect width="48" height="48" rx="2" stroke="none"/>
      <rect x="0.5" y="0.5" width="47" height="47" rx="1.5" fill="none"/>
    </g>
    <path id="Icon_simple-wechat" data-name="Icon simple-wechat" d="M35.312,19.122A9.921,9.921,0,0,0,30.674,14.4a12.767,12.767,0,0,0-11.444.045,9.489,9.489,0,0,0-5.069,6.243,8.018,8.018,0,0,0,1.02,5.941A10.954,10.954,0,0,0,22.638,31.5a13.731,13.731,0,0,0,6.507-.427c1.263.489,2.388,1.281,3.612,1.869-.317-1.06-.654-2.109-1.014-3.153a10.2,10.2,0,0,0,3.366-3.719A8.063,8.063,0,0,0,35.312,19.122ZM20.426,4.923A15.172,15.172,0,0,0,8,3.955a12.648,12.648,0,0,0-6.519,5.13,9.621,9.621,0,0,0-1.2,7.376,11.3,11.3,0,0,0,4.893,6.62c-.45,1.275-.878,2.549-1.283,3.833,1.462-.765,2.925-1.565,4.389-2.341a16.293,16.293,0,0,0,5.49.777,9.238,9.238,0,0,1-.382-4.427,9.393,9.393,0,0,1,2.991-5.331,12.972,12.972,0,0,1,9.744-3.2,11.354,11.354,0,0,0-5.736-7.47h.041Zm2.6,14.983A1.477,1.477,0,1,1,21.135,18a1.493,1.493,0,0,1,1.89,1.906Zm7.193.138a1.509,1.509,0,0,1-2.364.405,2.246,2.246,0,0,1-.516-1.095,1.66,1.66,0,0,1,1.4-1.433A1.5,1.5,0,0,1,30.2,20.046h.022ZM19.485,10.363a2.17,2.17,0,1,1,0-.018l0,.018Zm-9.089.366A1.843,1.843,0,1,1,8,8.55,1.854,1.854,0,0,1,10.4,10.729Z" transform="translate(288 1005.001)" fill="#0b487d"/>
  </g>
</svg>
